<?xml version="1.0" standalone="no"?>
<!DOCTYPE svg PUBLIC "-//W3C//DTD SVG 20010904//EN"
 "http://www.w3.org/TR/2001/REC-SVG-20010904/DTD/svg10.dtd">
<svg version="1.0" xmlns="http://www.w3.org/2000/svg"
 width="295.000000pt" height="262.000000pt" viewBox="0 0 295.000000 262.000000"
 preserveAspectRatio="xMidYMid meet">

<g transform="translate(0.000000,262.000000) scale(0.100000,-0.100000)"
fill="#000000" stroke="none">
<path d="M980 2551 c0 -18 29 -33 51 -26 22 7 22 8 4 21 -21 16 -55 19 -55 5z"/>
<path d="M1460 2516 c0 -87 -57 -118 -233 -125 -122 -6 -129 -7 -147 -31 -11
-14 -20 -37 -20 -53 0 -15 -9 -35 -21 -45 -28 -23 -49 -65 -49 -98 0 -81 64
-174 121 -174 34 0 39 16 8 25 -30 10 -59 64 -59 112 0 62 35 99 108 113 127
26 150 33 211 66 35 19 65 34 66 32 8 -8 -27 -192 -50 -273 -40 -136 -49 -209
-29 -250 15 -32 15 -35 -11 -79 -35 -60 -44 -149 -21 -209 22 -57 112 -143
159 -152 72 -14 147 18 219 92 85 87 125 201 115 324 -5 63 -4 67 21 86 50 38
126 193 95 193 -5 0 -24 -23 -43 -51 -30 -47 -80 -89 -106 -89 -6 0 -31 20
-56 45 l-45 44 40 38 c44 43 93 134 113 208 27 99 14 141 -52 173 -66 33 -91
29 -138 -21 -38 -39 -96 -139 -96 -165 0 -6 -4 -13 -10 -17 -5 -3 -7 13 -3 44
5 42 2 57 -21 95 -14 24 -26 59 -26 76 0 28 -24 90 -35 90 -3 0 -5 -11 -5 -24z
m313 -179 c-7 -65 -67 -180 -115 -221 -41 -36 -99 -49 -113 -27 -6 12 119 216
172 280 33 39 38 42 49 27 7 -10 10 -34 7 -59z m-172 -327 c87 -35 142 -85
115 -105 -9 -7 -44 -18 -79 -25 -64 -13 -138 -33 -170 -45 -16 -7 -17 -4 -11
21 17 72 56 184 63 184 5 0 42 -13 82 -30z m130 -273 c-25 -115 -121 -222
-219 -247 -83 -21 -132 9 -132 80 0 54 55 126 125 163 56 29 218 76 229 66 6
-5 5 -30 -3 -62z"/>
<path d="M960 2483 c1 -13 48 -63 60 -63 19 0 10 15 -25 43 -19 15 -35 24 -35
20z"/>
<path d="M1990 2449 c-7 -11 -9 -23 -6 -26 7 -7 46 26 46 39 0 17 -30 7 -40
-13z"/>
<path d="M747 2394 c-7 -41 -2 -53 13 -38 18 18 102 4 133 -22 29 -24 47 -31
47 -16 0 14 -98 62 -126 62 -21 0 -24 4 -19 20 3 11 2 20 -4 20 -5 0 -16 2
-24 6 -10 4 -16 -5 -20 -32z"/>
<path d="M2123 2364 c-30 -15 -44 -34 -26 -34 21 0 92 34 87 41 -8 13 -25 11
-61 -7z"/>
<path d="M2216 2316 c3 -9 15 -18 26 -22 19 -6 19 -7 2 -25 -20 -22 -12 -38
10 -20 15 12 27 59 17 65 -3 2 -18 6 -33 10 -22 5 -26 3 -22 -8z"/>
<path d="M2370 2299 c-14 -16 -24 -34 -22 -40 3 -14 -14 -11 -28 6 -15 18 -30
19 -30 3 0 -15 46 -75 52 -68 8 10 68 120 68 125 0 13 -18 2 -40 -26z"/>
<path d="M760 2304 c0 -8 6 -14 14 -14 8 0 21 -3 30 -6 11 -4 16 0 16 13 0 15
-7 20 -30 21 -20 0 -30 -4 -30 -14z"/>
<path d="M2427 2293 c-13 -12 -7 -33 8 -33 8 0 15 9 15 20 0 20 -11 26 -23 13z"/>
<path d="M635 2265 c10 -24 10 -54 0 -113 l-8 -43 -23 22 c-27 25 -29 22 -12
-16 12 -27 48 -35 48 -10 0 20 10 19 26 -2 7 -10 16 -15 20 -11 4 4 2 14 -4
21 -16 19 -6 26 31 20 25 -3 35 0 44 16 14 23 0 39 -20 23 -16 -13 -66 -21
-72 -12 -3 4 2 28 9 54 8 25 10 43 4 40 -5 -3 -19 2 -30 13 -21 18 -21 18 -13
-2z"/>
<path d="M2144 2269 c-7 -12 13 -29 35 -29 8 0 11 6 7 16 -3 9 -6 18 -6 20 0
9 -29 3 -36 -7z"/>
<path d="M820 2255 c-17 -20 9 -21 36 0 19 14 19 14 -2 15 -12 0 -27 -7 -34
-15z"/>
<path d="M2138 2199 c-25 -14 -22 -34 7 -47 24 -11 36 0 15 13 -6 4 -8 15 -5
26 7 22 6 22 -17 8z"/>
<path d="M852 2188 c5 -15 28 -18 29 -3 0 6 -7 12 -17 13 -10 3 -15 -1 -12
-10z"/>
<path d="M550 2160 c0 -5 5 -10 10 -10 6 0 10 5 10 10 0 6 -4 10 -10 10 -5 0
-10 -4 -10 -10z"/>
<path d="M801 2134 c-31 -25 -40 -44 -22 -44 13 0 71 50 71 61 0 16 -17 10
-49 -17z"/>
<path d="M2453 2104 c-10 -33 -9 -34 18 -34 16 0 32 -7 37 -16 12 -21 32 -10
32 17 0 16 -3 18 -19 10 -25 -14 -50 12 -32 33 9 11 7 15 -7 18 -14 4 -21 -3
-29 -28z"/>
<path d="M450 2111 c0 -6 5 -13 10 -16 6 -3 10 1 10 9 0 9 -4 16 -10 16 -5 0
-10 -4 -10 -9z"/>
<path d="M2366 2097 c-5 -11 -2 -26 8 -42 18 -28 41 -33 50 -10 4 11 -1 15
-19 15 -18 0 -25 6 -27 28 -4 22 -6 24 -12 9z"/>
<path d="M525 2090 c-3 -5 8 -16 24 -25 33 -17 59 -62 63 -114 2 -19 11 -39
20 -45 25 -15 34 1 13 24 -13 15 -16 29 -12 62 3 24 4 37 1 31 -3 -7 -10 -13
-15 -13 -6 0 -7 5 -4 11 4 5 -10 26 -32 44 -41 37 -49 40 -58 25z"/>
<path d="M470 2071 c0 -5 9 -7 20 -4 11 3 20 7 20 9 0 2 -9 4 -20 4 -11 0 -20
-4 -20 -9z"/>
<path d="M688 2053 c6 -2 18 -2 25 0 6 3 1 5 -13 5 -14 0 -19 -2 -12 -5z"/>
<path d="M814 2026 c-3 -13 -23 -41 -45 -62 -38 -37 -48 -54 -31 -54 11 0 112
119 112 131 0 20 -30 7 -36 -15z"/>
<path d="M2160 2037 c0 -18 107 -133 115 -125 5 4 -13 30 -38 57 -26 28 -47
54 -47 60 0 5 -7 11 -15 15 -8 3 -15 0 -15 -7z"/>
<path d="M500 2025 c14 -16 40 -20 40 -6 0 9 -24 21 -42 21 -6 0 -6 -6 2 -15z"/>
<path d="M2350 2028 c0 -8 7 -24 16 -37 11 -15 14 -33 10 -52 -3 -17 -2 -28 3
-24 14 8 24 61 16 85 -8 25 -45 48 -45 28z"/>
<path d="M683 1987 c-32 -22 -45 -43 -20 -34 6 2 21 1 33 -3 18 -7 20 -4 21
26 1 19 0 34 0 33 -1 0 -16 -11 -34 -22z"/>
<path d="M2283 1986 c4 -10 7 -23 7 -30 0 -8 12 -11 35 -8 21 3 35 10 35 18 0
8 -3 14 -7 15 -16 1 -39 7 -57 15 -16 6 -18 4 -13 -10z"/>
<path d="M2616 1918 c-19 -27 -21 -45 -3 -26 28 30 39 48 29 48 -6 0 -18 -10
-26 -22z"/>
<path d="M369 1914 c35 -63 165 -170 149 -123 -2 7 -18 17 -34 21 -19 5 -41
26 -64 60 -19 28 -41 54 -48 56 -11 3 -12 0 -3 -14z"/>
<path d="M430 1910 c0 -12 62 -41 70 -33 7 7 -40 43 -56 43 -8 0 -14 -5 -14
-10z"/>
<path d="M599 1913 c-1 -4 0 -18 1 -31 1 -12 -2 -22 -7 -21 -20 5 -43 -15 -43
-37 0 -24 15 -31 35 -16 14 10 35 59 35 82 0 18 -19 39 -21 23z"/>
<path d="M2417 1882 c-23 -52 -22 -61 9 -72 34 -13 37 -13 31 5 -7 16 29 45
87 69 28 12 36 20 29 27 -8 8 -22 4 -49 -15 -45 -31 -54 -32 -55 -8 0 13 -2
12 -9 -5 -10 -23 -30 -32 -30 -12 0 6 5 19 10 30 6 10 7 19 2 19 -4 0 -16 -17
-25 -38z"/>
<path d="M801 1871 l23 -18 -26 -44 c-35 -59 -65 -89 -88 -89 -25 0 -34 -16
-14 -24 33 -13 75 28 129 127 l37 67 -42 0 -42 0 23 -19z"/>
<path d="M2228 1883 c7 -3 16 -2 19 1 4 3 -2 6 -13 5 -11 0 -14 -3 -6 -6z"/>
<path d="M658 1864 c-16 -8 -28 -21 -28 -28 0 -11 10 -9 40 7 40 22 51 37 28
37 -7 -1 -25 -8 -40 -16z"/>
<path d="M2150 1876 c0 -2 20 -37 45 -78 42 -70 86 -110 102 -94 4 4 -2 9 -14
12 -23 6 -58 54 -87 122 -11 23 -25 42 -33 42 -7 0 -13 -2 -13 -4z"/>
<path d="M2300 1870 c0 -5 6 -10 14 -10 7 0 25 -11 40 -25 17 -16 26 -19 26
-10 0 16 -47 55 -66 55 -8 0 -14 -4 -14 -10z"/>
<path d="M733 1833 c-15 -3 -23 -12 -23 -24 0 -26 12 -24 40 6 13 14 19 24 14
24 -5 -1 -19 -4 -31 -6z"/>
<path d="M2230 1833 c0 -13 29 -38 35 -31 3 3 -4 13 -15 23 -11 10 -20 13 -20
8z"/>
<path d="M2505 1806 c-19 -8 -25 -15 -17 -20 13 -8 52 10 52 24 0 12 2 12 -35
-4z"/>
<path d="M643 1763 c-11 -37 -9 -53 6 -53 11 0 33 68 26 80 -11 18 -20 11 -32
-27z"/>
<path d="M2380 1783 c0 -27 -15 -30 -24 -6 -5 12 -9 14 -18 5 -14 -14 8 -62
29 -62 16 0 16 5 -2 -54 -20 -65 -19 -76 5 -71 11 2 20 0 20 -4 0 -17 61 -33
101 -28 26 3 56 18 87 43 74 61 85 72 77 83 -12 20 -33 11 -40 -16 -8 -34 -46
-67 -103 -89 -41 -15 -47 -15 -78 0 -37 17 -46 53 -19 76 20 17 19 31 -1 23
-14 -5 -16 -2 -11 18 3 13 0 42 -8 64 -10 28 -14 33 -15 18z"/>
<path d="M577 1783 c-4 -3 8 -32 26 -65 27 -49 30 -61 19 -76 -23 -32 -25 -45
-10 -56 8 -6 18 -20 22 -32 3 -11 18 -32 32 -45 20 -19 27 -21 34 -10 4 8 15
11 24 8 12 -5 14 0 10 26 -11 61 -15 63 -33 22 l-19 -40 2 60 c1 57 2 60 41
87 22 15 52 30 68 33 26 6 38 25 15 25 -18 0 -113 -47 -126 -63 -6 -7 -13 -32
-14 -55 -4 -61 -23 -45 -24 19 0 37 -10 74 -27 112 -27 59 -29 62 -40 50z"/>
<path d="M866 1731 c-4 -5 -2 -20 3 -34 8 -20 3 -38 -20 -87 -33 -70 -34 -104
-1 -51 23 38 56 157 47 172 -8 12 -22 12 -29 0z"/>
<path d="M2175 1710 c3 -5 11 -10 17 -10 6 0 35 -12 64 -26 35 -17 55 -34 62
-52 14 -40 13 -72 -4 -72 -10 0 -14 13 -14 46 0 27 -4 43 -10 39 -5 -3 -10
-15 -10 -26 0 -26 -5 -24 -44 18 -38 42 -60 39 -27 -3 11 -15 21 -33 21 -40 0
-8 6 -14 13 -14 8 0 22 -9 32 -20 16 -18 16 -20 1 -26 -9 -3 -23 -3 -32 0 -10
4 -14 1 -11 -6 2 -8 18 -12 39 -11 l35 2 -45 -92 c-24 -51 -49 -95 -55 -99 -7
-4 -8 -8 -4 -8 21 0 67 43 67 63 0 20 3 19 29 -11 28 -30 51 -41 51 -24 0 4
-10 16 -22 26 -20 18 -21 19 -2 29 26 13 64 49 64 59 0 17 -27 7 -48 -17 -13
-15 -28 -22 -37 -19 -13 5 -12 13 10 51 19 36 25 60 25 110 l0 64 -62 39 c-58
37 -118 54 -103 30z"/>
<path d="M2115 1696 c-10 -23 19 -115 45 -146 26 -30 37 -20 15 13 -9 14 -24
54 -34 89 -14 48 -21 59 -26 44z"/>
<path d="M574 1680 c3 -14 6 -28 6 -32 0 -11 30 -10 30 1 0 5 -9 19 -21 32
l-21 24 6 -25z"/>
<path d="M546 1671 c-4 -6 -2 -11 3 -11 6 0 11 -4 11 -10 0 -5 -11 -10 -25
-10 -14 0 -25 -4 -25 -10 0 -5 16 -10 35 -10 38 0 41 4 21 39 -8 15 -16 20
-20 12z"/>
<path d="M2499 1664 c-7 -8 -9 -17 -6 -20 8 -9 57 4 57 15 0 16 -39 19 -51 5z"/>
<path d="M776 1630 c-41 -45 -45 -61 -16 -53 11 3 20 12 20 21 0 9 12 29 27
44 15 15 22 28 16 28 -6 0 -27 -18 -47 -40z"/>
<path d="M2432 1645 c-10 -21 -9 -25 6 -25 9 0 28 -3 42 -6 l25 -6 -22 20
c-13 11 -23 25 -23 31 0 20 -17 11 -28 -14z"/>
<path d="M396 1626 c6 -16 73 -51 81 -43 5 6 -66 57 -79 57 -4 0 -5 -6 -2 -14z"/>
<path d="M568 1582 c-10 -2 -18 -8 -18 -13 0 -11 11 -11 30 1 18 11 11 18 -12
12z"/>
<path d="M902 1559 c-34 -17 -71 -44 -82 -60 -22 -29 -13 -41 10 -14 18 22
130 88 137 81 4 -3 6 -39 7 -78 0 -104 -30 -152 -97 -157 -35 -2 -38 -1 -28
16 13 26 31 40 56 44 20 4 32 34 34 87 1 38 -11 41 -33 7 -9 -14 -23 -25 -31
-25 -11 0 -14 -7 -10 -23 8 -32 -20 -58 -30 -28 -3 12 -11 21 -17 21 -6 0 -8
-9 -4 -20 20 -65 19 -67 -8 -37 -14 15 -27 27 -29 27 -2 0 -2 -12 0 -27 3 -23
-1 -19 -21 18 -14 26 -41 56 -59 68 -46 28 -56 27 -27 -4 30 -31 18 -46 -13
-17 -13 12 -26 19 -30 16 -8 -9 3 -34 16 -34 6 0 21 -10 34 -22 l23 -22 -27
-18 c-19 -12 -23 -18 -12 -18 9 0 28 10 43 21 l27 21 6 -21 c3 -12 19 -29 35
-37 29 -15 30 -15 23 8 -7 22 -7 22 12 6 11 -10 24 -18 30 -18 6 0 17 -8 24
-17 12 -15 12 -16 -3 -10 -21 7 -22 3 -7 -24 10 -19 9 -20 -11 -9 -35 19 -120
14 -182 -9 -58 -22 -138 -95 -121 -111 12 -11 93 -19 93 -9 0 5 -13 9 -30 9
-89 0 37 102 144 116 43 6 106 -15 106 -36 0 -15 -9 -12 -47 11 -19 12 -37 18
-41 14 -10 -10 37 -45 70 -52 19 -4 28 -11 26 -21 -4 -19 -45 -48 -80 -56 -36
-8 -36 9 -2 45 l26 27 -40 7 c-29 5 -48 2 -69 -10 l-28 -16 43 3 c23 2 42 1
42 -3 0 -3 -12 -18 -26 -32 -23 -23 -24 -28 -10 -33 23 -9 87 1 122 17 16 8
36 28 44 45 16 32 28 29 43 -9 5 -14 2 -16 -18 -11 -23 6 -25 3 -25 -24 0 -17
4 -34 10 -37 13 -8 60 24 60 41 0 8 5 14 10 14 6 0 10 5 10 10 0 6 -7 10 -15
10 -18 0 -61 80 -47 89 5 3 12 13 15 21 3 9 6 4 6 -12 2 -63 39 -106 94 -110
27 -2 39 -18 15 -18 -7 0 1 -11 17 -24 l30 -25 -38 9 c-20 4 -39 4 -42 0 -3
-4 8 -10 23 -13 15 -3 36 -13 47 -21 l20 -15 -20 0 c-11 0 -37 3 -57 8 -39 9
-55 -2 -18 -12 32 -8 23 -27 -12 -27 -18 0 -46 -9 -63 -20 -16 -11 -38 -20
-47 -20 -10 0 -18 -6 -18 -14 0 -11 9 -10 50 5 67 25 80 25 72 -3 -4 -18 4
-13 35 20 38 40 75 54 88 32 10 -17 -23 -60 -58 -76 l-32 -15 35 7 c50 9 80
40 80 82 0 33 1 34 18 19 21 -19 32 -22 32 -7 0 6 -15 24 -34 41 -33 29 -34
31 -18 50 17 19 17 19 25 -13 5 -18 16 -41 25 -51 18 -20 77 -50 98 -50 8 0
14 -4 14 -9 0 -4 10 -8 23 -8 53 -1 46 -17 -10 -23 -32 -3 -59 -11 -61 -17 -2
-5 -9 -10 -16 -10 -24 0 -107 -82 -136 -134 -24 -41 -40 -106 -27 -106 1 0 28
9 60 20 31 11 69 20 84 20 14 0 40 4 57 9 17 5 50 15 74 22 61 18 92 58 92
119 0 43 2 48 20 43 57 -15 -29 46 -95 67 -52 16 -67 30 -32 30 15 0 27 4 27
9 0 5 9 13 20 16 59 19 66 165 9 195 -17 10 -18 8 -4 -31 8 -23 15 -61 15 -84
0 -36 -5 -48 -31 -69 -54 -46 -58 -39 -56 86 1 79 -2 113 -11 116 -8 2 -12
-11 -12 -42 0 -36 -4 -46 -17 -46 -15 0 -15 -1 0 -18 21 -22 22 -62 3 -62 -7
0 -19 7 -26 15 -7 8 -20 15 -29 15 -10 -1 -3 -11 22 -31 42 -35 50 -64 15 -54
-32 9 -68 52 -68 79 0 13 15 54 34 92 19 38 34 70 32 71 -9 9 -57 -44 -77 -84
-12 -26 -24 -42 -26 -36 -2 6 5 26 16 44 26 42 26 92 1 144 l-19 40 6 -62 c3
-34 3 -72 0 -85 -10 -37 -45 -68 -77 -68 -47 0 -40 35 15 68 42 26 65 52 45
52 -5 0 -15 -6 -22 -12 -25 -23 -41 -21 -34 4 4 13 9 39 12 58 l5 35 -15 -25
c-8 -14 -16 -34 -16 -45 0 -18 -2 -18 -21 5 l-21 25 7 -25 c12 -44 17 -90 10
-90 -4 0 -16 11 -27 25 -11 14 -24 23 -29 19 -5 -3 2 -20 16 -38 26 -34 32
-56 16 -56 -12 0 -38 26 -51 51 -24 43 66 165 141 191 19 6 29 17 29 30 0 11
-4 18 -10 16 -20 -6 -105 -74 -147 -117 -29 -30 -43 -38 -43 -27 0 9 6 19 14
22 8 3 19 18 26 34 12 30 15 46 26 153 6 62 6 67 -13 67 -11 0 -47 -14 -81
-31z m183 -429 c3 -5 2 -10 -4 -10 -5 0 -13 5 -16 10 -3 6 -2 10 4 10 5 0 13
-4 16 -10z m264 -196 c41 -8 39 -20 -4 -28 -19 -4 -35 -13 -35 -19 0 -7 -35
-33 -77 -57 -91 -51 -88 -48 -81 -56 7 -6 52 15 104 51 21 14 39 23 42 20 3
-3 -1 -23 -8 -45 -11 -34 -18 -40 -49 -46 -20 -3 -60 -10 -89 -16 -28 -6 -54
-9 -57 -6 -9 8 22 71 54 112 37 47 62 65 110 82 42 15 49 16 90 8z m71 -51 c0
-33 -39 -82 -76 -98 -20 -8 -39 -13 -42 -11 -2 3 5 24 17 48 28 60 101 103
101 61z"/>
<path d="M2004 1541 c3 -20 8 -62 12 -94 4 -36 15 -71 30 -93 13 -19 24 -40
24 -47 0 -7 7 -25 15 -41 20 -37 3 -89 -34 -106 -14 -7 -21 -15 -14 -17 23 -8
50 16 81 75 19 36 29 66 26 79 -4 15 0 23 15 28 12 3 18 12 15 20 -3 8 1 29
10 46 18 36 12 54 -8 26 -27 -36 -46 -16 -39 43 2 24 1 29 -5 16 -7 -17 -9
-17 -24 -2 -9 8 -18 21 -21 28 -2 7 -8 10 -12 6 -4 -4 2 -22 14 -41 11 -19 21
-42 21 -52 0 -10 12 -28 28 -42 23 -20 25 -25 12 -33 -43 -28 -94 10 -109 81
-11 51 -15 149 -6 149 8 0 108 -62 130 -80 36 -31 48 -35 36 -12 -27 51 -113
101 -170 100 -31 -1 -32 -2 -27 -37z"/>
<path d="M501 1466 c-10 -12 -8 -13 9 -9 25 7 37 23 17 23 -8 0 -20 -6 -26
-14z"/>
<path d="M1866 1452 c-30 -101 -31 -239 -2 -271 13 -14 14 -20 5 -23 -8 -3
-10 -11 -4 -24 16 -37 14 -49 -12 -76 -28 -29 -29 -63 -1 -34 23 23 28 20 28
-13 0 -34 43 -91 68 -91 12 0 6 11 -20 35 -58 54 -48 85 40 120 23 10 42 21
42 27 0 11 -30 3 -75 -19 -30 -15 -30 -15 5 17 30 27 32 31 13 27 -43 -9 -23
13 21 24 61 15 86 41 86 87 -1 20 -6 49 -13 64 -15 35 -112 135 -148 154 -25
12 -28 12 -33 -4z m77 -49 c47 -36 94 -102 102 -145 5 -25 1 -38 -15 -55 -11
-13 -25 -23 -30 -23 -17 0 -11 26 10 45 20 18 27 45 12 45 -5 0 -15 -11 -22
-25 -8 -14 -18 -24 -24 -22 -18 6 -19 46 -2 73 17 25 9 33 -12 12 -9 -9 -12
-9 -12 -1 0 7 -5 24 -11 40 -17 45 -30 8 -13 -40 17 -49 18 -65 2 -49 -7 7
-21 12 -32 12 -15 0 -10 -7 21 -30 40 -29 60 -65 43 -75 -21 -13 -81 25 -95
59 -20 47 2 206 29 206 7 0 29 -12 49 -27z"/>
<path d="M2520 1452 c0 -14 60 -53 70 -47 17 11 11 24 -20 40 -32 17 -50 19
-50 7z"/>
<path d="M537 1423 c-15 -14 -6 -23 24 -23 24 0 30 -4 25 -15 -3 -9 0 -15 7
-15 7 0 22 7 33 15 19 15 19 15 0 30 -20 15 -77 21 -89 8z"/>
<path d="M402 1408 c5 -14 117 -62 125 -54 3 3 -7 10 -22 16 -15 6 -40 19 -55
30 -32 23 -54 26 -48 8z"/>
<path d="M2380 1405 c-10 -12 -9 -15 8 -15 11 0 25 7 32 15 10 12 9 15 -8 15
-11 0 -25 -7 -32 -15z"/>
<path d="M2221 1403 c0 -6 -4 -20 -7 -30 -5 -14 -4 -15 5 -7 7 7 11 20 8 30
-3 11 -5 14 -6 7z"/>
<path d="M2471 1371 c-19 -3 -36 -12 -39 -20 -6 -19 56 -7 78 14 15 16 15 16
-39 6z"/>
<path d="M1677 1344 c-4 -4 -7 -17 -7 -28 0 -19 1 -19 17 -3 12 11 14 20 7 27
-6 6 -13 7 -17 4z"/>
<path d="M1310 1327 c0 -7 9 -22 19 -31 19 -18 20 -17 12 10 -8 29 -31 46 -31
21z"/>
<path d="M2398 1333 c7 -3 16 -2 19 1 4 3 -2 6 -13 5 -11 0 -14 -3 -6 -6z"/>
<path d="M2159 1249 c-39 -42 -38 -59 4 -59 31 0 57 14 57 31 0 4 -17 5 -37 3
l-38 -6 25 21 c14 12 36 21 50 20 42 -2 51 1 45 11 -3 6 -22 10 -42 10 -26 0
-42 -8 -64 -31z"/>
<path d="M1786 1220 c15 -28 29 -70 31 -94 5 -38 2 -45 -22 -64 -15 -12 -34
-22 -41 -22 -25 0 -15 28 16 47 17 9 30 23 30 31 0 14 -13 9 -43 -16 -12 -11
-21 -12 -28 -5 -15 15 -2 51 22 63 27 15 24 32 -5 24 -22 -5 -25 -3 -22 23 4
34 -3 55 -15 47 -5 -3 -7 -32 -3 -65 3 -32 2 -59 -2 -59 -4 0 -20 12 -36 27
-15 14 -31 23 -35 19 -4 -4 12 -24 35 -45 28 -26 42 -47 42 -64 0 -37 -15 -41
-55 -17 -47 29 -54 71 -27 151 22 66 18 75 -14 26 -29 -46 -36 -82 -24 -128
12 -43 56 -79 98 -79 12 0 22 -4 22 -10 0 -5 9 -10 20 -10 11 0 20 5 20 10 0
6 9 10 21 10 11 0 34 14 51 30 26 27 29 35 24 68 -9 48 -25 90 -48 125 -32 46
-40 30 -12 -23z"/>
<path d="M2355 1225 c17 -14 35 -25 41 -25 11 0 44 -32 44 -43 0 -3 -26 -11
-57 -17 -32 -6 -67 -13 -78 -15 -14 -3 -25 5 -37 25 l-17 30 57 -5 57 -5 -47
17 c-28 10 -53 13 -65 8 -10 -5 -24 -7 -30 -6 -22 3 -14 -16 17 -43 17 -14 32
-29 33 -33 7 -25 197 9 197 35 0 12 -117 102 -133 102 -6 -1 2 -12 18 -25z"/>
<path d="M2108 1152 c-13 -2 -18 -13 -18 -37 0 -18 -5 -35 -10 -37 -6 -2 9
-18 32 -37 24 -19 61 -56 83 -82 22 -26 41 -46 43 -44 7 7 -59 94 -92 122 -33
27 -34 30 -26 73 5 25 8 45 7 46 -1 0 -10 -1 -19 -4z"/>
<path d="M885 1054 c-16 -8 -41 -25 -54 -37 -25 -23 -81 -105 -81 -119 0 -10
114 -11 161 -1 28 5 30 7 14 14 -11 4 -43 8 -71 8 -28 1 -54 4 -57 7 -10 10
28 53 89 100 56 44 56 58 -1 28z"/>
<path d="M1971 1049 c-48 -9 -64 -19 -43 -27 8 -2 29 -17 47 -33 32 -29 33
-29 38 -7 4 14 0 26 -10 33 -15 11 -15 13 5 19 12 4 22 12 22 17 0 10 2 10
-59 -2z"/>
<path d="M1152 958 c3 -31 28 -54 28 -25 0 8 9 17 20 20 27 7 25 23 -2 31 -43
11 -49 8 -46 -26z"/>
<path d="M1605 965 c-47 -29 -43 -32 11 -9 22 10 53 20 69 24 l30 8 -35 1
c-21 1 -51 -9 -75 -24z"/>
<path d="M1808 983 c-23 -6 -22 -14 5 -40 27 -25 43 -19 42 17 0 25 -14 32
-47 23z"/>
<path d="M1645 953 c-63 -14 -75 -24 -75 -65 0 -50 29 -92 80 -118 63 -32 74
-28 67 25 -7 50 -5 52 38 25 57 -36 87 -51 92 -47 6 7 -68 57 -84 57 -7 0 -13
4 -13 9 0 5 -13 14 -30 21 -16 7 -30 19 -30 26 0 8 -6 14 -12 14 -7 0 -23 3
-35 6 -32 9 -30 -14 2 -26 24 -9 37 -31 51 -86 l6 -25 -38 16 c-49 20 -73 51
-74 92 0 42 27 57 100 57 46 1 63 -5 101 -31 25 -17 57 -47 71 -65 33 -43 61
-98 54 -105 -3 -3 -37 -1 -75 6 -72 11 -118 14 -110 7 7 -7 211 -47 215 -43 7
7 -19 71 -48 118 -55 91 -170 151 -253 132z"/>
<path d="M2015 900 c-4 -6 15 -10 49 -10 30 0 58 5 61 10 4 6 -15 10 -49 10
-30 0 -58 -4 -61 -10z"/>
<path d="M1371 634 c0 -11 3 -14 6 -6 3 7 2 16 -1 19 -3 4 -6 -2 -5 -13z"/>
<path d="M280 491 c0 -95 4 -152 11 -156 16 -10 24 4 11 17 -7 7 -12 38 -12
70 l0 58 59 0 c61 0 71 -7 71 -51 0 -11 4 -18 8 -15 12 7 2 65 -12 73 -6 4
-36 7 -66 8 l-55 0 0 65 0 65 39 3 c58 5 86 -5 87 -31 1 -19 2 -20 6 -3 8 30
-24 46 -89 46 l-58 0 0 -149z"/>
<path d="M500 491 c0 -83 3 -152 8 -154 4 -3 5 31 3 75 -2 44 1 78 5 76 5 -3
18 -2 29 3 17 7 16 8 -8 8 -28 1 -28 1 -25 64 l3 62 65 6 65 6 -72 1 -73 2 0
-149z"/>
<path d="M1525 633 c22 -3 47 -10 55 -16 13 -11 13 -10 1 6 -9 12 -26 16 -55
15 l-41 -1 40 -4z"/>
<path d="M1923 615 c7 -14 16 -25 20 -25 9 0 -9 36 -22 44 -5 4 -4 -5 2 -19z"/>
<path d="M2070 630 c9 -4 31 -5 50 0 34 8 33 8 -15 9 -34 0 -45 -3 -35 -9z"/>
<path d="M2248 626 c-10 -7 -18 -22 -17 -32 0 -16 1 -16 9 3 5 12 19 25 32 27
13 3 32 7 43 9 11 3 4 5 -15 6 -19 0 -43 -6 -52 -13z"/>
<path d="M2453 585 c0 -33 2 -45 4 -27 2 18 2 45 0 60 -2 15 -4 0 -4 -33z"/>
<path d="M2488 633 c7 -3 16 -2 19 1 4 3 -2 6 -13 5 -11 0 -14 -3 -6 -6z"/>
<path d="M2540 633 c39 -7 50 -22 52 -67 l1 -41 4 38 c5 47 -18 78 -56 76
l-26 -2 25 -4z"/>
<path d="M2667 633 c-4 -3 -7 -18 -7 -32 0 -20 3 -22 9 -11 6 8 8 18 5 22 -6
9 25 16 86 21 34 3 29 4 -21 5 -36 1 -69 -1 -72 -5z"/>
<path d="M934 495 c0 -77 2 -107 3 -67 2 40 2 103 0 140 -2 37 -3 4 -3 -73z"/>
<path d="M1206 558 c-32 -130 -46 -201 -42 -205 2 -3 10 22 16 54 6 32 18 77
26 101 8 23 14 49 14 57 0 8 5 15 10 15 6 0 10 11 10 25 0 47 -16 25 -34 -47z"/>
<path d="M1460 619 c0 -5 5 -7 10 -4 6 3 10 8 10 11 0 2 -4 4 -10 4 -5 0 -10
-5 -10 -11z"/>
<path d="M2355 620 c3 -5 8 -10 11 -10 2 0 4 5 4 10 0 6 -5 10 -11 10 -5 0 -7
-4 -4 -10z"/>
<path d="M723 585 c0 -22 2 -30 4 -17 2 12 2 30 0 40 -3 9 -5 -1 -4 -23z"/>
<path d="M1453 560 c0 -25 2 -35 4 -22 2 12 2 32 0 45 -2 12 -4 2 -4 -23z"/>
<path d="M2372 492 c-1 -62 -7 -123 -13 -135 -10 -20 -10 -21 5 -6 14 13 16
34 13 135 l-3 119 -2 -113z"/>
<path d="M1790 579 c0 -5 5 -7 10 -4 6 3 10 8 10 11 0 2 -4 4 -10 4 -5 0 -10
-5 -10 -11z"/>
<path d="M2084 475 c0 -66 1 -92 3 -57 2 34 2 88 0 120 -2 31 -3 3 -3 -63z"/>
<path d="M1251 540 c0 -14 6 -50 14 -80 17 -71 18 -33 1 45 -8 33 -14 49 -15
35z"/>
<path d="M421 524 c0 -11 3 -14 6 -6 3 7 2 16 -1 19 -3 4 -6 -2 -5 -13z"/>
<path d="M724 455 c0 -49 1 -71 3 -48 2 23 2 64 0 90 -2 26 -3 8 -3 -42z"/>
<path d="M2453 435 c1 -76 1 -80 4 -22 3 49 8 67 18 67 17 0 47 -30 66 -68 8
-15 20 -33 27 -40 6 -7 12 -18 12 -24 0 -6 3 -9 6 -5 3 3 -10 32 -30 64 -20
32 -36 62 -36 66 0 4 11 7 23 7 13 0 32 9 42 20 21 23 11 27 -11 5 -23 -22
-111 -20 -117 3 -3 9 -4 -23 -4 -73z"/>
<path d="M1466 500 c5 -5 34 -11 64 -14 36 -4 46 -3 30 2 -41 14 -104 22 -94
12z"/>
<path d="M2664 496 c-8 -22 3 -33 18 -18 9 9 9 15 0 24 -9 9 -13 7 -18 -6z"/>
<path d="M1838 493 c6 -2 18 -2 25 0 6 3 1 5 -13 5 -14 0 -19 -2 -12 -5z"/>
<path d="M2708 493 c7 -3 16 -2 19 1 4 3 -2 6 -13 5 -11 0 -14 -3 -6 -6z"/>
<path d="M1589 424 c2 -26 -2 -51 -9 -59 -7 -9 -8 -15 -2 -15 5 0 13 7 16 16
9 22 7 92 -1 97 -5 3 -6 -15 -4 -39z"/>
<path d="M1943 415 c0 -22 2 -30 4 -17 2 12 2 30 0 40 -3 9 -5 -1 -4 -23z"/>
<path d="M2231 389 c-1 -33 20 -52 51 -46 21 4 20 4 -4 6 -22 1 -29 8 -37 34
-9 30 -9 30 -10 6z"/>
<path d="M421 382 c-1 -13 -10 -26 -23 -32 l-23 -9 23 0 c25 -1 36 17 29 46
-4 14 -5 13 -6 -5z"/>
<path d="M1790 382 c0 -14 35 -42 51 -41 8 0 4 4 -8 9 -13 5 -23 16 -23 25 0
8 -4 15 -10 15 -5 0 -10 -4 -10 -8z"/>
<path d="M1291 364 c0 -11 3 -14 6 -6 3 7 2 16 -1 19 -3 4 -6 -2 -5 -13z"/>
<path d="M1460 355 c13 -14 25 -23 28 -21 4 5 -35 46 -45 46 -3 0 4 -11 17
-25z"/>
<path d="M1927 363 c-4 -3 -7 -11 -7 -17 0 -6 5 -5 12 2 6 6 9 14 7 17 -3 3
-9 2 -12 -2z"/>
<path d="M2670 346 c0 -9 5 -16 10 -16 6 0 10 4 10 9 0 6 -4 13 -10 16 -5 3
-10 -1 -10 -9z"/>
<path d="M728 343 c7 -3 16 -2 19 1 4 3 -2 6 -13 5 -11 0 -14 -3 -6 -6z"/>
<path d="M1540 339 c0 -5 5 -7 10 -4 6 3 10 8 10 11 0 2 -4 4 -10 4 -5 0 -10
-5 -10 -11z"/>
<path d="M2110 229 c-7 -11 -20 -29 -31 -40 -27 -27 -21 -77 13 -102 15 -11
34 -17 42 -14 23 9 20 26 -4 20 -28 -7 -50 14 -50 47 0 35 22 54 55 46 14 -4
25 -2 25 4 0 9 -14 14 -33 11 -4 -1 -5 10 -1 24 8 30 -1 33 -16 4z"/>
<path d="M1871 206 c-8 -9 -21 -14 -30 -11 -9 2 -21 1 -27 -3 -14 -9 -25 -104
-15 -121 17 -28 113 -40 193 -26 30 6 39 4 44 -9 3 -9 10 -13 15 -10 5 3 5 13
-1 24 -5 10 -10 41 -10 69 0 27 -5 53 -11 56 -6 4 -8 13 -5 20 2 7 -5 15 -17
19 -28 7 -33 0 -16 -21 12 -16 12 -16 -8 0 -31 26 -95 34 -112 13z m93 -19
c14 -10 26 -23 26 -29 0 -6 -10 -2 -23 10 -13 12 -36 22 -51 22 -15 0 -25 4
-21 10 8 13 37 8 69 -13z m-100 -19 c-4 -7 -11 -28 -15 -48 l-7 -35 -1 36 c0
19 4 40 11 47 15 15 21 15 12 0z m69 -8 c4 -16 1 -20 -11 -18 -9 1 -22 -1 -29
-5 -20 -13 -27 15 -8 30 26 19 42 16 48 -7z m35 -70 c-16 -25 -50 -35 -75 -22
-15 9 -12 10 16 9 25 -2 37 4 49 23 l16 25 -27 -24 c-23 -21 -29 -22 -43 -10
-15 12 -12 15 22 30 32 13 40 14 47 3 4 -7 2 -23 -5 -34z m32 25 c0 -35 -42
-75 -78 -75 -17 0 -40 9 -53 21 l-24 21 25 -16 c52 -34 120 -6 120 49 0 14 2
25 5 25 3 0 5 -11 5 -25z"/>
<path d="M2651 201 c-14 -11 -20 -21 -13 -25 6 -3 13 0 16 6 5 10 7 10 12 1 3
-7 12 -13 21 -13 8 0 13 6 10 13 -2 6 -10 11 -16 10 -15 -4 -14 14 2 20 6 3 8
6 2 6 -5 0 -21 -8 -34 -18z"/>
<path d="M390 150 c0 -33 0 -63 0 -67 0 -5 6 -8 13 -8 6 0 10 7 8 15 -11 43
-12 70 -2 70 6 0 11 -4 11 -8 0 -5 6 -17 14 -28 14 -18 15 -17 31 16 l16 35
-4 -53 c-3 -44 -1 -52 11 -50 9 2 15 6 14 11 -1 4 -2 34 -2 67 0 66 -15 79
-33 30 -6 -16 -16 -30 -22 -30 -6 0 -16 14 -22 30 -18 49 -33 36 -33 -30z"/>
<path d="M537 180 c-26 -43 0 -110 43 -110 29 0 60 38 60 74 0 66 -71 91 -103
36z m81 -2 c17 -17 15 -48 -5 -70 -20 -22 -37 -23 -57 -2 -32 31 -14 84 29 84
12 0 26 -5 33 -12z"/>
<path d="M680 139 l0 -70 36 3 c94 6 93 133 -1 136 l-35 1 0 -70z m80 32 c5
-11 10 -26 10 -35 0 -21 -28 -46 -51 -46 -16 0 -19 7 -19 43 0 24 3 47 7 50
13 14 43 7 53 -12z"/>
<path d="M826 201 c-3 -5 -1 -11 5 -13 12 -4 -5 -69 -25 -96 -11 -16 -2 -26
18 -19 9 4 13 13 10 22 -5 11 1 15 25 15 24 0 31 -4 31 -20 0 -12 7 -20 16
-20 18 0 17 4 -13 85 -13 36 -25 51 -40 53 -12 2 -24 -1 -27 -7z m46 -63 c-18
-18 -33 1 -21 24 11 20 12 20 21 4 7 -12 7 -21 0 -28z"/>
<path d="M1100 208 c-1 -2 -2 -33 -3 -71 l-2 -67 46 0 c48 0 72 21 49 44 -7 7
-10 5 -10 -7 0 -12 -8 -17 -30 -17 -25 0 -30 4 -30 24 0 20 4 23 21 19 16 -5
20 -2 17 8 -3 8 -11 13 -18 11 -15 -3 -31 18 -24 30 8 12 49 9 63 -4 10 -11
12 -9 9 7 -2 16 -12 21 -46 23 -23 2 -42 2 -42 0z"/>
<path d="M1393 185 c7 -14 16 -25 20 -25 5 0 5 5 2 10 -3 6 -1 10 4 10 6 0 11
-4 11 -9 0 -5 3 -16 6 -25 4 -11 1 -16 -10 -16 -9 0 -16 5 -16 10 0 23 -21 7
-35 -26 -18 -45 -18 -44 0 -44 8 0 15 9 15 20 0 16 7 20 30 20 23 0 30 -4 30
-20 0 -11 7 -20 15 -20 20 0 19 9 -11 79 -21 49 -31 61 -49 61 -21 0 -22 -2
-12 -25z"/>
<path d="M1527 198 c-26 -19 -27 -81 -2 -108 21 -24 57 -26 75 -5 11 13 8 14
-17 9 -49 -10 -85 50 -51 84 16 16 55 15 61 0 4 -10 7 -10 18 -1 16 16 9 23
-32 29 -21 3 -41 0 -52 -8z"/>
<path d="M1655 140 l0 -70 46 0 c38 0 48 4 52 20 6 22 -3 26 -20 9 -15 -15
-58 -7 -58 11 0 8 10 16 23 18 27 4 24 27 -4 27 -10 0 -19 7 -19 15 0 19 41
25 61 10 11 -10 14 -9 14 9 0 18 -6 21 -47 21 l-48 0 0 -70z"/>
<path d="M2210 203 c1 -18 18 -35 24 -24 9 14 46 15 46 1 0 -5 5 -10 10 -10
16 0 11 27 -6 34 -22 8 -74 7 -74 -1z"/>
<path d="M2365 200 c-3 -5 1 -10 9 -10 9 0 16 -4 16 -9 0 -5 11 -4 24 2 13 7
23 14 21 17 -6 10 -64 10 -70 0z"/>
<path d="M2504 196 c-10 -8 -15 -18 -11 -22 4 -4 17 2 30 14 24 25 12 30 -19
8z"/>
<path d="M2537 170 c-10 -18 -12 -32 -6 -36 6 -3 7 -19 4 -36 -6 -25 -4 -29
12 -26 13 2 17 11 15 30 -2 14 2 29 8 33 9 6 9 10 -1 16 -12 8 -12 10 0 18 14
9 7 31 -9 31 -5 0 -15 -13 -23 -30z"/>
<path d="M2161 169 c-4 -12 -5 -38 -2 -57 8 -44 31 -56 31 -15 0 16 5 34 12
41 9 9 9 12 -1 12 -8 0 -10 7 -6 20 9 28 -23 27 -34 -1z"/>
<path d="M2303 160 c-8 -12 -9 -21 -3 -25 6 -3 10 -19 10 -36 0 -16 5 -29 10
-29 6 0 10 13 10 29 0 17 4 33 10 36 9 6 -8 45 -20 45 -3 0 -11 -9 -17 -20z"/>
<path d="M2720 164 c0 -10 -7 -14 -22 -12 -17 2 -23 -2 -24 -17 -2 -40 -4 -46
-13 -41 -5 3 -7 14 -4 24 2 10 -3 24 -12 32 -23 19 -65 -2 -65 -34 0 -33 18
-44 73 -44 47 1 47 1 47 35 0 21 4 32 10 28 6 -4 10 -12 9 -18 -4 -30 2 -48
14 -44 6 2 11 15 9 29 -2 15 1 29 7 33 7 4 7 12 -2 25 -14 24 -27 26 -27 4z
m-80 -34 c0 -5 -7 -10 -15 -10 -8 0 -15 5 -15 10 0 6 7 10 15 10 8 0 15 -4 15
-10z m-10 -30 c0 -5 -4 -10 -10 -10 -5 0 -10 5 -10 10 0 6 5 10 10 10 6 0 10
-4 10 -10z"/>
<path d="M2221 146 c-7 -8 -11 -27 -9 -43 4 -36 45 -44 72 -14 18 19 18 22 2
46 -18 28 -47 33 -65 11z m42 -22 c8 -8 -3 -34 -14 -34 -5 0 -9 9 -9 20 0 19
11 26 23 14z"/>
<path d="M2366 144 c-33 -32 -14 -77 30 -72 23 2 30 8 32 31 6 49 -30 73 -62
41z m36 -29 c0 -5 -5 -11 -11 -13 -6 -2 -11 4 -11 13 0 9 5 15 11 13 6 -2 11
-8 11 -13z"/>
<path d="M2455 140 c-15 -17 -16 -24 -7 -46 10 -20 18 -25 40 -22 21 2 27 9
28 28 2 31 -12 60 -30 60 -7 0 -21 -9 -31 -20z m35 -10 c0 -5 -4 -10 -10 -10
-5 0 -10 5 -10 10 0 6 5 10 10 10 6 0 10 -4 10 -10z m0 -30 c0 -5 -4 -10 -10
-10 -5 0 -10 5 -10 10 0 6 5 10 10 10 6 0 10 -4 10 -10z"/>
<path d="M2775 136 c-29 -43 18 -89 53 -54 18 18 14 56 -7 68 -27 14 -28 13
-46 -14z m41 -32 c-5 -13 -10 -14 -18 -6 -6 6 -8 18 -4 28 5 13 10 14 18 6 6
-6 8 -18 4 -28z"/>
<path d="M2867 153 c-12 -12 -7 -36 11 -50 13 -11 14 -13 2 -11 -9 2 -18 -1
-20 -7 -3 -5 5 -11 18 -13 29 -4 42 26 19 43 -21 15 -22 29 -2 21 8 -3 15 -1
15 3 0 5 -7 12 -16 15 -19 7 -19 7 -27 -1z"/>
</g>
</svg>
