<?xml version="1.0" standalone="no"?>
<!DOCTYPE svg PUBLIC "-//W3C//DTD SVG 20010904//EN"
 "http://www.w3.org/TR/2001/REC-SVG-20010904/DTD/svg10.dtd">
<svg version="1.0" xmlns="http://www.w3.org/2000/svg"
 width="391.000000pt" height="90.000000pt" viewBox="0 0 391.000000 90.000000"
 preserveAspectRatio="xMidYMid meet">

<g transform="translate(0.000000,90.000000) scale(0.100000,-0.100000)"
fill="#000000" stroke="none">
<path d="M1241 743 c-52 -55 -127 -182 -149 -251 -22 -74 -33 -91 -82 -126
-59 -43 -92 -51 -119 -28 -24 19 -37 79 -22 101 8 13 13 11 29 -9 26 -32 48
-21 73 34 24 56 13 87 -41 111 -45 20 -66 12 -105 -39 -30 -40 -39 -72 -40
-139 0 -41 5 -53 28 -73 56 -48 138 -44 212 13 38 28 46 32 41 16 -8 -25 9
-71 36 -100 16 -18 33 -23 69 -23 45 0 49 3 108 65 55 60 61 63 61 40 0 -34
25 -82 49 -95 11 -5 38 -10 60 -10 47 0 93 35 143 109 17 25 32 47 34 49 1 2
13 -8 27 -22 29 -29 63 -33 92 -12 17 12 24 12 48 -1 36 -18 77 -10 112 23 31
29 42 25 51 -20 5 -30 0 -41 -35 -86 -56 -71 -55 -112 4 -123 26 -5 36 1 73
40 33 37 42 53 42 82 0 33 6 41 59 79 53 39 90 87 76 100 -3 3 -18 -6 -33 -20
-31 -30 -92 -68 -108 -68 -6 0 -22 21 -37 48 l-26 47 21 47 c17 41 18 50 6 75
-21 44 -43 40 -68 -12 -18 -37 -21 -56 -16 -94 5 -41 3 -50 -16 -68 -23 -21
-61 -43 -74 -43 -4 0 -4 20 -1 43 10 70 -9 76 -60 19 -23 -26 -42 -42 -43 -35
0 6 25 38 55 71 51 55 53 60 37 75 -9 8 -30 19 -45 22 -24 6 -34 2 -63 -26
-20 -19 -52 -61 -71 -94 -43 -71 -87 -121 -127 -142 -27 -14 -31 -14 -43 3
-15 21 -17 95 -4 141 5 18 39 79 74 135 74 118 97 179 77 203 -22 26 -45 17
-97 -37 -57 -61 -134 -197 -157 -279 -8 -30 -29 -73 -45 -96 -32 -45 -94 -88
-115 -80 -19 7 -27 83 -15 139 6 27 32 81 60 123 72 111 101 172 97 208 -5 53
-40 49 -97 -10z m64 -20 c-8 -33 -101 -200 -117 -209 -13 -8 -5 19 33 111 25
61 69 125 85 125 4 0 3 -12 -1 -27z m275 -3 c-9 -31 -56 -119 -97 -180 -35
-53 -29 -10 12 84 32 73 68 126 86 126 4 0 4 -14 -1 -30z m-635 -222 c-10 -32
-21 -42 -40 -35 -14 6 -14 9 1 32 21 32 48 34 39 3z m1000 -293 c-27 -47 -42
-55 -52 -29 -4 10 8 30 33 55 47 48 56 36 19 -26z"/>
<path d="M2574 759 c-102 -13 -198 -87 -210 -161 -8 -44 26 -85 118 -144 68
-44 105 -85 93 -104 -10 -16 -77 -48 -118 -55 -34 -7 -37 -6 -37 17 0 13 7 33
15 44 8 10 15 27 15 37 0 27 -34 5 -70 -45 -62 -85 -28 -135 85 -125 97 9 151
46 168 116 10 41 -26 106 -79 143 -88 61 -110 85 -98 105 16 26 86 37 157 24
85 -15 116 6 132 91 6 29 3 38 -12 46 -26 14 -100 19 -159 11z"/>
<path d="M2840 737 c-13 -7 -36 -36 -49 -65 -18 -37 -31 -52 -46 -52 -11 0
-27 -5 -35 -10 -12 -8 -11 -11 8 -16 27 -8 28 3 -14 -149 -31 -115 -29 -156
13 -206 24 -28 31 -31 67 -26 33 4 50 15 87 57 l46 51 17 -26 c36 -55 110 -23
145 64 12 28 18 31 56 31 24 0 50 3 59 6 13 5 16 -2 16 -44 0 -47 17 -82 39
-82 22 0 46 36 90 138 27 62 51 115 53 117 2 2 2 -11 0 -29 -2 -19 1 -43 7
-55 13 -24 53 -28 70 -7 10 12 9 13 -8 9 -18 -4 -20 1 -23 48 -3 50 -5 54 -28
54 -21 0 -31 -12 -60 -67 -40 -76 -67 -110 -55 -68 4 14 16 42 26 62 26 52 24
83 -7 107 -15 12 -33 21 -40 21 -14 0 -47 -82 -58 -142 l-7 -38 -53 0 -54 0
-4 55 c-8 92 -78 145 -128 95 -22 -22 -24 -37 -11 -73 18 -48 -95 -227 -143
-227 -43 0 -38 101 10 223 20 51 41 97 46 103 4 6 27 14 49 17 63 8 74 27 16
27 l-47 0 0 39 c0 41 -8 71 -19 71 -3 0 -17 -6 -31 -13z m16 -73 c-7 -26 -26
-33 -26 -9 0 8 6 26 12 41 10 22 14 24 16 10 2 -10 1 -28 -2 -42z m-42 -129
c-20 -54 -27 -54 -13 1 16 60 21 71 26 57 3 -7 -3 -33 -13 -58z m240 13 c20
-28 21 -104 2 -111 -17 -7 -51 28 -65 66 -22 56 30 92 63 45z m-10 -175 c-3
-10 -14 -29 -24 -43 l-20 -25 0 23 c0 13 5 32 10 43 13 24 40 26 34 2z"/>
<path d="M515 729 c-70 -10 -98 -35 -93 -83 2 -25 8 -32 31 -34 33 -4 33 -9 6
-73 -17 -38 -27 -49 -44 -49 -28 0 -41 -40 -24 -68 10 -15 8 -27 -7 -58 -18
-36 -23 -39 -69 -44 -46 -5 -51 -8 -71 -45 -12 -22 -25 -50 -29 -63 -7 -23 -6
-23 54 -16 43 5 61 3 61 -5 0 -17 24 -13 42 8 11 13 36 21 79 26 151 17 230
58 270 138 20 38 20 41 3 78 -13 31 -25 42 -56 51 -21 6 -38 14 -38 17 0 3 25
19 56 35 87 46 121 133 68 175 -22 17 -40 21 -103 20 -42 -1 -103 -5 -136 -10z
m222 -105 c6 -18 -56 -51 -151 -84 l-86 -29 0 22 c0 32 46 95 72 100 44 9 161
2 165 -9z m-79 -202 c7 -5 14 -21 15 -36 2 -26 -2 -29 -69 -46 -74 -19 -180
-29 -177 -17 1 4 4 20 8 36 8 36 25 51 68 61 44 11 139 12 155 2z"/>
<path d="M3573 575 c-53 -37 -77 -93 -78 -178 0 -41 5 -53 28 -73 91 -78 234
-18 285 121 2 6 -12 -6 -30 -26 -74 -81 -141 -111 -177 -81 -24 19 -37 79 -22
101 8 13 13 11 29 -9 26 -32 48 -21 73 34 24 55 14 85 -37 110 -42 20 -44 20
-71 1z m82 -77 c-10 -32 -21 -42 -40 -35 -14 6 -14 9 1 32 21 32 48 34 39 3z"/>
</g>
</svg>
