<?xml version="1.0" standalone="no"?>
<!DOCTYPE svg PUBLIC "-//W3C//DTD SVG 20010904//EN"
 "http://www.w3.org/TR/2001/REC-SVG-20010904/DTD/svg10.dtd">
<svg version="1.0" xmlns="http://www.w3.org/2000/svg"
 width="218.000000pt" height="221.000000pt" viewBox="0 0 218.000000 221.000000"
 preserveAspectRatio="xMidYMid meet">

<g transform="translate(0.000000,221.000000) scale(0.100000,-0.100000)"
fill="#000000" stroke="none">
<path d="M674 1991 c10 -11 24 -17 32 -14 21 8 17 20 -8 27 -37 10 -42 7 -24
-13z"/>
<path d="M1619 1979 c-23 -19 -23 -20 -2 -10 12 6 25 16 28 21 10 16 -1 12
-26 -11z"/>
<path d="M1028 1961 c-5 -58 -40 -75 -164 -81 -113 -5 -134 -16 -134 -65 0
-12 -11 -32 -25 -45 -57 -53 -8 -198 68 -200 23 0 22 17 -2 25 -26 8 -53 68
-45 99 10 41 45 64 122 80 41 8 94 27 119 41 25 14 47 25 49 25 11 0 1 -71
-26 -176 -40 -158 -45 -204 -27 -228 13 -18 12 -23 -5 -47 -23 -30 -34 -101
-24 -152 4 -22 23 -50 53 -81 42 -40 53 -46 91 -46 78 0 153 56 204 153 17 32
23 62 25 126 2 78 4 86 32 115 34 35 73 115 64 130 -4 5 -11 2 -17 -9 -18 -30
-68 -85 -86 -95 -14 -8 -26 -2 -57 28 l-38 38 35 35 c62 61 103 176 87 241 -7
25 -62 58 -98 58 -30 0 -66 -42 -104 -122 l-35 -73 6 47 c5 38 2 53 -15 81
-11 19 -21 48 -21 64 0 16 -6 38 -14 49 -14 18 -15 17 -18 -15z m242 -106 c0
-110 -109 -244 -167 -207 -21 13 129 242 159 242 4 0 8 -16 8 -35z m-52 -311
c13 -15 21 -28 18 -31 -2 -3 -44 -15 -93 -28 -48 -12 -96 -26 -105 -30 -15 -6
-16 -3 -7 32 6 21 17 59 25 85 l15 46 62 -24 c34 -13 72 -36 85 -50z m25 -141
c-10 -79 -69 -162 -138 -194 -78 -36 -135 -16 -135 47 0 36 31 79 83 116 24
18 157 65 188 67 4 1 5 -16 2 -36z"/>
<path d="M664 1932 c17 -18 34 -32 38 -32 15 0 0 18 -35 41 l-32 22 29 -31z"/>
<path d="M1442 1927 c-25 -27 -30 -46 -6 -27 15 13 38 50 31 50 -2 0 -13 -10
-25 -23z"/>
<path d="M497 1902 c1 -7 -2 -22 -7 -33 -13 -24 2 -25 23 -1 21 23 21 32 3 32
-8 0 -16 3 -19 8 -2 4 -2 1 0 -6z"/>
<path d="M520 1861 c0 -5 9 -7 21 -4 12 3 32 -2 47 -14 42 -30 52 -35 52 -25
0 15 -68 52 -96 52 -13 0 -24 -4 -24 -9z"/>
<path d="M1527 1854 c-16 -9 -27 -17 -25 -20 6 -5 70 16 83 27 16 15 -28 9
-58 -7z"/>
<path d="M511 1826 c-9 -11 -8 -15 5 -20 23 -9 34 -7 34 4 0 6 -7 10 -16 10
-8 0 -12 5 -9 10 9 15 -1 12 -14 -4z"/>
<path d="M1606 1827 c3 -8 13 -18 22 -22 15 -6 15 -8 -2 -21 -11 -7 -16 -17
-12 -21 4 -5 14 1 22 11 16 23 19 60 4 51 -6 -4 -18 -1 -26 6 -12 10 -13 9 -8
-4z"/>
<path d="M1722 1812 c-12 -13 -20 -27 -17 -33 10 -15 -7 -10 -27 8 -25 22 -23
2 3 -31 l21 -26 25 50 c14 28 24 52 22 54 -2 1 -14 -9 -27 -22z"/>
<path d="M401 1788 c17 -33 19 -46 10 -60 -6 -10 -11 -28 -11 -40 l0 -21 -23
21 c-33 32 -42 27 -15 -7 24 -31 48 -40 48 -19 0 9 3 9 12 0 17 -17 33 -15 19
2 -16 19 1 29 31 17 20 -7 23 -5 24 16 1 16 -2 21 -10 15 -12 -9 -66 -15 -66
-7 0 3 6 21 14 40 12 28 12 33 1 29 -8 -4 -20 7 -30 25 -8 17 -18 31 -20 31
-3 0 4 -19 16 -42z"/>
<path d="M1764 1799 c-3 -6 -1 -16 5 -22 8 -8 11 -5 11 11 0 24 -5 28 -16 11z"/>
<path d="M553 1783 c-14 -5 -18 -23 -5 -23 5 0 17 7 28 15 14 11 15 14 4 14
-8 0 -21 -3 -27 -6z"/>
<path d="M1550 1781 c0 -5 7 -11 15 -15 9 -3 15 0 15 9 0 8 -7 15 -15 15 -8 0
-15 -4 -15 -9z"/>
<path d="M570 1725 c7 -8 17 -12 22 -9 6 4 5 10 -3 15 -22 14 -33 10 -19 -6z"/>
<path d="M1540 1730 c-13 -9 -12 -12 4 -25 11 -8 25 -15 30 -15 6 0 3 6 -6 14
-13 10 -15 15 -6 24 15 15 -1 16 -22 2z"/>
<path d="M529 1680 c-19 -16 -29 -29 -22 -30 15 0 70 47 62 54 -3 3 -21 -8
-40 -24z"/>
<path d="M1790 1674 c0 -7 -3 -20 -7 -29 -5 -14 -2 -16 16 -10 14 4 23 2 27
-9 7 -19 24 -11 24 10 0 8 -4 13 -9 10 -5 -4 -17 -3 -26 0 -14 6 -14 8 -1 23
14 15 13 17 -4 17 -11 0 -20 -6 -20 -12z"/>
<path d="M323 1666 c4 -6 -5 -15 -20 -21 -26 -11 -26 -11 12 -11 21 0 40 -5
43 -12 2 -7 9 -18 15 -25 14 -14 18 -77 5 -77 -4 0 -6 -11 -2 -25 3 -14 2 -25
-2 -24 -29 5 -42 -2 -37 -21 3 -11 9 -17 14 -14 5 3 9 -2 9 -11 0 -9 9 -34 21
-56 18 -35 18 -44 7 -70 -7 -16 -24 -34 -38 -39 -15 -6 -17 -9 -5 -6 11 2 28
7 38 11 11 5 17 3 17 -7 0 -8 14 -27 32 -44 17 -16 27 -23 23 -15 -6 11 -3 13
13 9 22 -6 30 6 12 17 -6 4 -8 11 -5 16 4 5 1 17 -4 26 -9 16 -10 14 -11 -9 0
-15 -4 -30 -10 -33 -6 -4 -10 12 -10 39 0 45 0 46 58 75 31 17 51 30 44 31 -7
0 -35 -11 -62 -25 -48 -24 -50 -27 -50 -66 0 -24 -4 -38 -10 -34 -5 3 -10 26
-10 49 0 24 -9 63 -19 87 -17 38 -18 50 -8 89 10 37 16 45 32 42 20 -4 20 -3
1 11 -15 11 -18 21 -13 46 5 23 3 30 -5 25 -7 -5 -9 0 -6 14 4 13 2 20 -4 16
-5 -3 -24 7 -41 22 -18 16 -28 25 -24 20z"/>
<path d="M1721 1645 c-1 -20 16 -45 30 -45 4 0 10 7 13 16 5 12 2 15 -9 10
-10 -4 -19 2 -25 17 -8 21 -9 21 -9 2z"/>
<path d="M448 1623 c6 -2 18 -2 25 0 6 3 1 5 -13 5 -14 0 -19 -2 -12 -5z"/>
<path d="M301 1604 c6 -8 18 -14 26 -14 20 0 8 16 -17 23 -17 4 -19 3 -9 -9z"/>
<path d="M540 1603 c0 -9 -17 -34 -37 -55 -20 -21 -33 -38 -28 -38 10 0 95 94
95 104 0 3 -7 6 -15 6 -8 0 -15 -8 -15 -17z"/>
<path d="M1560 1615 c0 -14 87 -111 93 -105 3 3 -17 30 -44 60 -27 30 -49 51
-49 45z"/>
<path d="M1717 1581 c15 -25 16 -34 5 -51 -7 -11 -8 -20 -4 -20 5 0 14 11 20
24 11 25 -2 66 -26 74 -8 2 -6 -7 5 -27z"/>
<path d="M460 1581 c0 -5 -12 -14 -27 -19 -16 -6 -21 -11 -11 -11 9 -1 22 -3
30 -6 8 -3 13 3 14 20 1 14 0 25 -2 25 -2 0 -4 -4 -4 -9z"/>
<path d="M1658 1574 c9 -4 10 -9 2 -19 -9 -10 -3 -13 25 -12 53 1 47 19 -10
30 -16 4 -24 4 -17 1z"/>
<path d="M1905 1513 l-17 -28 23 22 c12 12 20 25 17 28 -3 3 -13 -7 -23 -22z"/>
<path d="M200 1527 c0 -18 84 -107 102 -107 11 0 16 5 13 10 -4 6 -10 8 -15 5
-4 -3 -29 19 -54 47 -25 29 -46 49 -46 45z"/>
<path d="M1759 1496 c-17 -37 -14 -49 13 -59 11 -4 18 1 21 14 3 11 23 27 46
37 22 9 41 20 41 25 0 12 -13 8 -47 -13 -30 -18 -33 -18 -34 -2 0 13 -2 12 -9
-5 -13 -33 -23 -28 -15 7 9 40 3 38 -16 -4z"/>
<path d="M241 1516 c2 -2 20 -11 39 -20 l35 -17 -24 21 c-13 11 -30 20 -39 20
-8 0 -13 -2 -11 -4z"/>
<path d="M528 1490 c22 -9 22 -10 6 -42 -23 -46 -54 -78 -76 -78 -10 0 -18 -4
-18 -10 0 -15 22 -12 48 6 20 14 82 109 82 127 0 4 -15 7 -32 6 -30 0 -31 -1
-10 -9z"/>
<path d="M1608 1493 c6 -2 18 -2 25 0 6 3 1 5 -13 5 -14 0 -19 -2 -12 -5z"/>
<path d="M419 1470 l-24 -21 35 17 c43 21 47 24 28 24 -9 0 -26 -9 -39 -20z"/>
<path d="M1562 1482 c35 -79 95 -148 114 -129 4 4 -5 11 -20 16 -17 7 -35 29
-53 66 -15 30 -31 55 -36 55 -5 0 -7 -3 -5 -8z"/>
<path d="M1670 1483 c27 -10 60 -46 60 -65 0 -20 -16 -25 -22 -6 -3 7 -7 8
-10 2 -4 -5 0 -18 8 -29 13 -17 16 -18 24 -5 12 19 13 4 1 -18 -13 -26 -24
-95 -13 -88 5 3 18 -1 28 -9 37 -28 87 -19 143 26 52 42 63 59 36 59 -8 0 -15
-6 -15 -14 0 -18 -55 -64 -86 -72 -32 -8 -70 2 -78 21 -3 9 2 28 11 43 13 20
14 24 3 15 -13 -10 -15 -4 -17 39 -1 59 -28 102 -64 105 -14 1 -17 0 -9 -4z"/>
<path d="M460 1437 c0 -16 2 -16 25 -1 31 20 31 22 0 20 -17 -1 -25 -7 -25
-19z"/>
<path d="M1615 1450 c3 -5 16 -15 28 -21 22 -12 22 -12 3 10 -19 21 -43 30
-31 11z"/>
<path d="M1830 1439 c-27 -15 -30 -19 -14 -19 11 0 29 9 39 20 21 23 21 23
-25 -1z"/>
<path d="M409 1410 c-1 -11 -2 -25 -3 -32 -1 -6 5 -13 13 -16 9 -3 12 0 8 10
-3 9 -1 20 5 26 11 11 3 32 -13 32 -5 0 -10 -9 -10 -20z"/>
<path d="M585 1361 c3 -11 -5 -47 -19 -81 -17 -42 -21 -58 -11 -50 9 7 23 38
31 69 9 31 19 62 21 69 3 6 -2 12 -12 12 -12 0 -15 -5 -10 -19z"/>
<path d="M1619 1344 c40 -18 52 -27 44 -35 -6 -6 -9 -18 -6 -25 9 -23 -16 -16
-32 10 -9 13 -24 27 -33 31 -14 5 -14 4 1 -13 9 -10 17 -25 17 -33 0 -8 10
-19 22 -24 30 -14 34 -33 6 -38 -13 -2 -8 -4 10 -3 18 1 31 0 29 -3 -2 -4 -15
-31 -29 -63 -15 -31 -32 -59 -38 -63 -9 -6 -9 -2 -1 13 6 11 11 27 10 34 0 7
-5 1 -11 -14 -5 -16 -17 -28 -25 -28 -10 0 -13 5 -8 18 16 38 18 55 7 48 -7
-4 -12 -14 -12 -22 0 -8 -4 -14 -9 -14 -14 0 -23 34 -15 56 4 14 3 15 -4 5 -7
-10 -13 -8 -26 10 -12 17 -16 19 -16 7 0 -8 7 -21 15 -28 9 -7 14 -18 12 -24
-3 -6 7 -23 21 -38 l26 -28 -37 0 c-27 0 -40 6 -51 23 -20 30 -33 147 -17 147
21 0 75 -31 110 -64 26 -24 31 -26 22 -9 -24 46 -140 109 -156 84 -9 -16 17
-148 36 -173 10 -15 19 -35 19 -46 0 -10 5 -23 10 -28 15 -15 -6 -59 -34 -73
-19 -11 -19 -11 7 -6 24 5 27 2 27 -21 0 -27 21 -30 26 -3 1 7 4 21 6 29 3 8
3 12 1 8 -9 -16 -35 -8 -29 8 3 9 6 17 6 18 0 1 17 0 39 -2 22 -2 42 1 46 8
11 17 3 20 -39 10 -33 -7 -37 -6 -30 8 4 10 8 28 9 41 1 14 10 28 21 32 30 12
37 10 24 -6 -18 -21 -3 -19 31 6 16 11 29 28 29 37 0 13 3 12 16 -6 8 -12 23
-22 32 -22 13 0 12 3 -6 16 l-23 16 32 21 c18 12 35 29 37 37 3 10 -4 7 -20
-7 -34 -32 -79 -29 -49 3 16 16 52 86 41 79 -6 -4 -10 8 -10 30 0 31 -5 39
-47 65 -26 17 -56 30 -67 29 -13 0 1 -10 33 -25z m71 -75 c0 -16 -4 -29 -10
-29 -5 0 -10 16 -10 36 0 21 4 33 10 29 6 -3 10 -19 10 -36z"/>
<path d="M1531 1337 c-1 -28 30 -101 49 -112 15 -9 12 6 -4 24 -8 9 -21 39
-29 66 -12 40 -15 44 -16 22z"/>
<path d="M330 1338 c0 -13 18 -18 22 -6 3 8 6 7 10 -3 4 -10 -2 -15 -20 -17
-28 -2 -39 -9 -29 -18 3 -3 22 -1 41 6 31 10 34 14 26 30 -9 18 -50 24 -50 8z"/>
<path d="M1822 1330 c-15 -25 -44 -27 -36 -2 5 14 3 14 -10 -3 -15 -18 -15
-20 1 -27 26 -10 45 -9 39 1 -3 5 9 12 27 16 20 4 27 9 17 12 -8 3 -17 10 -20
14 -3 5 -11 -1 -18 -11z"/>
<path d="M535 1322 c-11 -9 -29 -27 -39 -39 -17 -21 -17 -23 -3 -23 10 0 17 5
17 12 0 7 12 25 27 40 30 31 29 37 -2 10z"/>
<path d="M233 1292 c10 -11 27 -22 38 -25 27 -7 13 10 -24 29 -32 17 -32 17
-14 -4z"/>
<path d="M615 1253 c-37 -19 -73 -52 -88 -78 -6 -12 6 -5 31 17 22 20 54 44
70 52 30 15 30 15 34 -16 6 -37 -8 -116 -23 -134 -12 -14 -67 -29 -76 -20 -9
8 18 37 43 46 16 7 23 19 26 49 4 46 -1 51 -20 21 -7 -12 -17 -18 -22 -15 -6
3 -10 -5 -10 -18 0 -32 -10 -40 -26 -19 -16 21 -19 0 -4 -29 17 -31 -7 -23
-25 9 l-15 27 2 -25 c2 -15 15 -32 35 -45 35 -22 44 -38 16 -28 -14 5 -12 0 6
-20 28 -31 36 -34 27 -11 -5 14 -4 15 8 5 11 -9 15 -9 19 1 3 7 6 1 6 -13 1
-34 37 -66 84 -74 42 -8 51 -24 10 -18 -25 3 -26 2 -7 -6 33 -15 41 -33 9 -21
-33 13 -45 13 -45 0 0 -5 10 -10 23 -10 26 0 54 -16 45 -25 -3 -4 -23 -2 -44
4 -21 6 -40 8 -43 5 -3 -2 5 -7 17 -11 32 -8 27 -23 -7 -23 -17 0 -32 -4 -36
-9 -3 -5 -19 -12 -35 -16 -17 -4 -30 -11 -30 -16 0 -12 1 -12 43 6 45 19 76
20 59 3 -7 -7 -12 -16 -12 -21 0 -5 15 8 34 27 32 34 55 44 69 30 12 -13 -15
-46 -48 -60 -37 -15 -180 -20 -189 -6 -5 9 52 68 94 96 22 14 22 16 5 16 -19
1 -19 1 -2 14 9 7 17 18 17 25 0 6 6 11 13 11 6 0 3 8 -9 18 -12 9 -24 26 -28
36 -3 10 -9 16 -13 13 -3 -4 -17 3 -31 13 -50 40 -166 17 -221 -44 -31 -33
-22 -42 49 -50 52 -5 53 -5 15 5 -72 19 -70 17 -45 44 25 26 98 55 141 55 15
0 37 -9 50 -21 l24 -20 -25 7 c-14 3 -29 10 -34 15 -6 5 -15 9 -20 9 -19 -1
36 -40 55 -40 38 0 8 -45 -37 -56 -36 -9 -41 2 -14 31 13 14 19 25 14 25 -12
0 -64 -52 -64 -64 0 -15 90 1 110 19 19 18 20 17 20 -8 0 -14 4 -28 9 -32 6
-3 -15 -29 -45 -58 -29 -29 -54 -61 -54 -71 0 -17 7 -18 88 -12 153 12 199 35
190 96 l-5 30 24 -22 c31 -29 30 -11 -2 22 -23 24 -24 28 -10 46 14 18 14 18
15 -4 0 -49 42 -82 135 -107 29 -8 29 -9 -16 -15 -26 -3 -65 -18 -88 -33 -46
-31 -101 -108 -101 -143 0 -21 1 -21 53 -8 28 8 79 19 111 25 75 14 116 50
116 102 0 31 3 35 23 30 15 -3 9 4 -18 21 -21 14 -52 28 -67 31 -33 8 -47 25
-20 25 10 0 30 13 45 28 36 38 37 90 1 129 l-25 28 15 -32 c23 -45 20 -99 -5
-124 -22 -22 -56 -21 -50 2 6 26 6 149 0 149 -12 0 -18 -27 -12 -51 5 -19 3
-21 -12 -15 -18 6 -18 6 -2 -12 20 -22 22 -52 3 -52 -7 0 -19 7 -26 15 -7 9
-15 13 -19 10 -3 -3 8 -17 24 -30 34 -26 28 -44 -10 -27 -47 22 -41 99 13 165
l27 32 -31 -22 c-16 -12 -39 -38 -49 -57 -11 -20 -23 -36 -27 -36 -4 0 1 15
12 33 23 37 25 70 5 112 -13 29 -14 28 -8 -25 4 -46 2 -59 -17 -82 -23 -30
-70 -39 -70 -14 0 13 16 29 66 64 18 12 18 13 -1 7 -11 -4 -26 -10 -34 -13
-11 -4 -13 -1 -6 14 4 10 9 30 11 44 3 24 3 24 -8 -2 -12 -28 -28 -38 -28 -16
0 6 -2 9 -5 6 -3 -3 -1 -17 5 -32 15 -40 2 -51 -26 -25 -13 12 -24 18 -24 12
0 -5 9 -18 20 -28 20 -18 27 -45 12 -45 -16 0 -42 37 -42 60 0 36 34 83 84
114 40 25 58 46 41 46 -15 0 -118 -86 -130 -109 -8 -14 -14 -21 -15 -14 0 6 9
28 21 47 12 20 23 64 28 105 7 68 6 71 -13 71 -12 -1 -34 -8 -51 -17z m4 -300
c12 -24 6 -29 -17 -15 -7 5 -10 16 -6 26 7 19 7 19 23 -11z m376 -173 c3 -6
-1 -7 -9 -4 -18 7 -21 14 -7 14 6 0 13 -4 16 -10z m-35 -10 c25 -8 25 -8 -7
-15 -18 -4 -31 -11 -28 -14 2 -4 -25 -23 -60 -42 -36 -19 -65 -37 -65 -41 0
-10 29 1 60 22 52 35 53 35 45 -1 -4 -19 -8 -35 -9 -36 -4 -5 -139 -23 -143
-19 -10 10 48 96 80 120 45 34 80 41 127 26z m40 -39 c0 -25 -38 -67 -68 -76
-22 -6 -23 -5 -17 17 9 29 54 78 72 78 7 0 13 -9 13 -19z"/>
<path d="M294 1175 c-24 -18 -7 -19 26 0 16 9 19 14 9 15 -8 0 -24 -7 -35 -15z"/>
<path d="M431 1171 c13 -11 21 -23 17 -27 -5 -4 -16 0 -26 9 -23 21 -39 22
-22 2 12 -14 8 -15 -27 -9 -26 4 -43 2 -47 -5 -5 -7 3 -11 19 -11 20 0 26 -4
21 -15 -8 -21 6 -19 32 5 20 19 24 20 43 6 21 -14 21 -14 -7 -30 -16 -8 -23
-15 -15 -16 8 0 25 10 38 22 19 18 23 19 23 5 0 -15 39 -51 47 -43 2 2 -7 21
-22 41 -14 21 -25 41 -25 44 0 7 -54 41 -65 41 -4 0 3 -9 16 -19z"/>
<path d="M1336 1154 c-3 -9 -9 -47 -12 -85 -6 -62 -5 -73 15 -100 20 -26 20
-29 4 -30 -11 0 -13 -3 -5 -6 19 -7 14 -48 -8 -68 -11 -10 -20 -22 -20 -27 0
-6 79 52 120 89 2 2 -8 0 -23 -6 -16 -6 -27 -7 -27 -1 0 5 16 14 36 19 99 27
99 98 0 189 -48 45 -70 52 -80 26z m60 -23 c17 -10 41 -35 53 -55 l23 -36 -25
-29 c-14 -17 -28 -27 -31 -24 -12 12 -6 47 11 65 9 10 11 18 5 18 -6 0 -14 -5
-18 -11 -4 -7 -12 -1 -21 17 l-13 29 4 -30 c3 -16 8 -39 12 -50 8 -19 7 -20
-19 -2 -15 9 -27 13 -27 7 0 -5 4 -10 9 -10 12 0 61 -47 61 -60 0 -5 -11 -10
-24 -10 -29 0 -66 43 -66 76 0 34 21 124 28 124 4 0 21 -9 38 -19z m80 -139
c-7 -20 -34 -37 -44 -27 -3 3 5 16 18 30 26 28 35 27 26 -3z"/>
<path d="M1859 1150 c25 -21 41 -26 41 -12 0 9 -44 32 -58 32 -4 -1 4 -10 17
-20z"/>
<path d="M1734 1135 c-16 -12 -16 -14 -3 -15 9 0 22 7 29 15 16 19 0 19 -26 0z"/>
<path d="M224 1131 c9 -13 124 -54 138 -48 8 4 7 6 -5 6 -10 1 -40 12 -67 26
-51 26 -75 32 -66 16z"/>
<path d="M1808 1107 c-21 -6 -38 -14 -38 -19 0 -13 22 -9 60 12 39 21 34 23
-22 7z"/>
<path d="M917 1083 c-3 -5 3 -20 14 -33 l20 -25 -6 25 c-9 30 -21 45 -28 33z"/>
<path d="M1187 1063 c-5 -26 -4 -27 10 -8 14 19 16 19 54 -24 64 -72 74 -152
22 -172 -40 -15 -41 0 -3 32 35 29 30 42 -6 14 -26 -20 -34 -19 -34 5 0 11 9
25 20 32 26 16 26 32 1 18 -18 -9 -20 -6 -24 27 -3 31 -4 28 -5 -15 l-2 -53
-27 20 c-37 30 -42 17 -5 -13 54 -46 44 -99 -12 -63 -32 21 -37 56 -16 117 9
27 15 50 13 50 -13 0 -43 -72 -43 -103 0 -43 35 -87 69 -87 36 0 31 -17 -7
-24 -61 -9 -80 -28 -76 -77 4 -47 25 -76 69 -94 36 -15 205 -48 212 -41 10 9
-35 92 -68 125 -57 56 -123 74 -184 51 -14 -5 -24 -6 -21 -1 3 4 33 16 66 25
33 9 60 21 60 27 0 5 6 9 14 9 7 0 25 9 39 20 26 21 26 24 11 94 -6 27 -97
136 -114 136 -4 0 -10 -12 -13 -27z m104 -317 c36 -25 97 -111 86 -122 -3 -4
-37 -1 -75 6 -64 10 -70 14 -75 38 -3 15 -4 29 -2 31 2 2 25 -9 50 -24 26 -15
49 -25 52 -22 2 3 -25 22 -61 42 -36 20 -64 40 -61 45 3 4 -9 10 -25 12 -33 5
-41 -7 -12 -16 10 -4 26 -22 35 -41 22 -46 21 -48 -5 -40 -66 20 -92 94 -40
114 38 15 89 6 133 -23z"/>
<path d="M1598 1032 c-14 -2 -32 -10 -38 -18 -14 -15 0 -20 16 -5 5 5 25 11
44 13 19 2 28 5 20 8 -8 3 -27 4 -42 2z"/>
<path d="M1690 1013 c0 -4 22 -21 47 -36 40 -25 45 -30 30 -38 -9 -6 -38 -12
-64 -15 -42 -5 -50 -3 -61 16 -13 22 -13 22 30 16 l43 -6 -34 16 c-22 10 -37
12 -44 5 -5 -5 -16 -7 -23 -4 -22 8 -16 -11 7 -25 12 -8 18 -19 15 -28 -4 -10
3 -14 24 -14 42 0 129 20 136 31 6 10 -24 38 -78 72 -15 11 -28 15 -28 10z"/>
<path d="M445 965 c-23 -10 -26 -14 -10 -14 29 -1 65 10 65 20 0 13 -20 10
-55 -6z"/>
<path d="M940 940 c-9 -6 -10 -10 -3 -10 6 0 15 5 18 10 8 12 4 12 -15 0z"/>
<path d="M1429 900 c-47 -14 -79 -41 -79 -67 0 -25 40 -73 62 -73 7 0 -3 13
-21 28 -44 36 -39 61 18 89 24 12 46 25 49 28 6 6 5 6 -29 -5z"/>
<path d="M1549 833 c32 -32 61 -65 63 -73 3 -8 9 -12 13 -8 4 4 2 13 -4 20
-53 66 -78 91 -102 104 -20 10 -11 -3 30 -43z"/>
<path d="M1422 860 c-35 -8 -54 -20 -33 -20 8 0 29 -17 48 -37 23 -25 31 -30
23 -15 -6 13 -9 26 -6 29 3 3 -2 12 -12 19 -16 12 -16 13 0 14 9 0 20 5 23 10
7 11 4 11 -43 0z"/>
<path d="M1475 820 c3 -5 8 -10 11 -10 2 0 4 5 4 10 0 6 -5 10 -11 10 -5 0 -7
-4 -4 -10z"/>
<path d="M796 813 c-7 -7 6 -43 15 -43 5 0 9 5 9 10 0 6 5 9 11 8 6 -2 13 2
16 8 4 11 -42 26 -51 17z"/>
<path d="M1297 812 c-16 -7 -16 -9 3 -25 27 -23 30 -22 30 8 0 26 -4 28 -33
17z"/>
<path d="M1455 750 c-4 -6 14 -10 47 -10 38 0 49 3 38 10 -20 13 -77 13 -85 0z"/>
<path d="M962 550 c0 -14 2 -19 5 -12 2 6 2 18 0 25 -3 6 -5 1 -5 -13z"/>
<path d="M140 543 c0 -5 19 -7 42 -5 32 4 45 0 56 -14 13 -18 14 -18 10 1 -3
17 -12 21 -56 23 -28 2 -52 -1 -52 -5z"/>
<path d="M300 435 l0 -115 58 2 57 2 -52 3 -53 4 0 49 c0 45 2 49 28 53 l27 4
-27 2 c-27 1 -28 4 -28 51 l0 49 58 4 57 3 -62 2 -63 2 0 -115z"/>
<path d="M470 437 l-5 -117 60 2 60 2 -52 3 -52 4 -3 112 -3 112 -5 -118z"/>
<path d="M632 438 l-2 -118 63 2 62 2 -57 3 -57 4 -4 112 -3 112 -2 -117z"/>
<path d="M826 439 c-15 -61 -25 -113 -23 -116 3 -2 15 39 27 92 13 52 25 94
27 91 3 -2 15 -44 28 -93 13 -48 24 -81 24 -73 1 17 -45 199 -52 206 -2 2 -16
-46 -31 -107z"/>
<path d="M1032 538 c-7 -7 -12 -28 -12 -48 0 -46 15 -60 62 -60 32 0 39 -4 44
-25 3 -14 3 -36 0 -50 -5 -21 -12 -25 -47 -25 -32 0 -41 4 -49 23 -5 13 -9 16
-9 7 -1 -25 20 -40 59 -40 45 0 60 15 60 60 0 44 -15 60 -56 60 -40 0 -56 19
-52 62 3 31 5 33 46 36 36 3 44 0 51 -20 6 -14 10 -17 10 -7 1 24 -20 39 -59
39 -20 0 -41 -5 -48 -12z"/>
<path d="M1290 525 c-20 -54 -2 -85 56 -94 39 -6 39 -7 39 -51 l0 -45 -42 -3
c-35 -3 -42 0 -48 18 -4 12 -9 19 -12 17 -2 -3 1 -15 7 -27 9 -18 19 -21 58
-18 l47 3 0 55 0 55 -43 6 c-58 7 -75 35 -52 80 14 25 74 26 90 2 10 -16 10
-16 8 2 -3 16 -12 21 -51 23 -43 3 -48 1 -57 -23z"/>
<path d="M1472 543 l27 -4 4 -107 3 -107 2 107 2 107 28 4 c15 2 0 4 -33 4
-33 0 -48 -2 -33 -4z"/>
<path d="M1622 538 c-17 -17 -16 -178 1 -202 10 -13 24 -17 57 -14 l45 3 0
110 0 110 -45 3 c-26 2 -50 -2 -58 -10z m93 -103 l0 -100 -39 -3 c-24 -2 -42
2 -47 10 -14 21 -11 172 3 186 7 7 29 12 48 10 l35 -3 0 -100z"/>
<path d="M1782 433 c1 -65 3 -92 5 -60 5 74 21 74 67 0 20 -32 36 -54 36 -49
0 5 -13 31 -30 57 l-30 49 23 0 c33 0 47 18 47 60 0 48 -15 60 -72 60 l-48 0
2 -117z m92 101 c19 -7 22 -64 4 -82 -7 -7 -29 -12 -50 -12 l-38 0 0 50 0 50
34 0 c19 0 41 -3 50 -6z"/>
<path d="M1968 543 c17 -2 47 -2 65 0 17 2 3 4 -33 4 -36 0 -50 -2 -32 -4z"/>
<path d="M1942 484 c-1 -28 0 -53 3 -56 3 -3 18 -3 33 0 l27 6 -25 6 c-21 5
-26 13 -31 50 l-6 45 -1 -51z"/>
<path d="M238 473 c-3 -26 -7 -28 -48 -29 -25 0 -46 -5 -47 -9 -2 -5 17 -8 42
-6 39 2 46 0 54 -21 6 -17 8 -9 9 35 0 60 -5 76 -10 30z"/>
<path d="M137 395 c-4 -8 -2 -17 3 -20 6 -4 10 3 10 14 0 25 -6 27 -13 6z"/>
<path d="M1941 394 c0 -11 3 -14 6 -6 3 7 2 16 -1 19 -3 4 -6 -2 -5 -13z"/>
<path d="M242 375 c4 -4 3 -16 -3 -26 -13 -25 -89 -27 -89 -3 0 8 -4 13 -10 9
-5 -3 -7 -12 -3 -21 4 -11 18 -14 56 -12 41 2 51 7 58 25 5 15 4 25 -4 29 -7
4 -9 4 -5 -1z"/>
<path d="M1943 348 c1 -27 2 -28 62 -26 l60 1 -54 6 c-42 5 -56 11 -62 26 -6
17 -7 15 -6 -7z"/>
<path d="M1530 245 c-7 -8 -9 -15 -4 -15 5 0 -2 -7 -14 -16 -24 -17 -30 -62
-10 -82 19 -19 56 -14 68 9 15 28 5 66 -21 80 -17 9 -19 13 -8 20 7 4 11 11 8
14 -4 3 -12 -1 -19 -10z m30 -50 c16 -19 -1 -65 -24 -65 -22 0 -39 28 -32 55
7 28 36 34 56 10z"/>
<path d="M342 214 c-39 -27 -19 -94 27 -94 44 0 55 70 16 96 -18 12 -24 11
-43 -2z m54 -29 c7 -27 -10 -55 -32 -55 -23 0 -40 46 -24 65 20 24 49 18 56
-10z"/>
<path d="M215 170 c0 -44 3 -50 20 -49 11 0 14 3 8 6 -7 2 -13 19 -12 36 0 30
1 31 11 10 6 -13 14 -23 18 -23 4 0 12 10 19 23 10 20 11 18 8 -15 -2 -22 2
-38 8 -38 5 0 10 22 10 50 0 56 -17 67 -33 23 l-9 -28 -13 28 c-20 42 -35 33
-35 -23z"/>
<path d="M435 170 c0 -48 1 -50 27 -50 32 0 58 24 58 54 0 30 -18 46 -54 46
-30 0 -31 -1 -31 -50z m65 25 c10 -12 10 -21 1 -41 -17 -38 -45 -28 -49 19 -3
31 0 37 16 37 11 0 25 -7 32 -15z"/>
<path d="M549 211 c13 -8 12 -15 -1 -50 -14 -34 -14 -41 -3 -41 9 0 12 6 9 15
-5 11 1 15 21 15 20 0 26 -4 21 -15 -4 -10 1 -15 16 -15 15 0 18 3 11 13 -6 6
-16 29 -22 50 -10 31 -17 37 -39 37 -20 0 -23 -3 -13 -9z m41 -37 c0 -14 -12
-19 -23 -8 -9 9 4 35 14 28 5 -3 9 -12 9 -20z"/>
<path d="M755 170 l0 -50 38 0 c32 0 37 3 36 23 -1 16 -2 18 -6 5 -7 -27 -53
-24 -53 3 0 15 5 19 15 15 9 -3 15 0 15 9 0 9 -6 12 -15 9 -9 -4 -15 0 -15 10
0 19 31 21 48 4 9 -9 12 -8 12 5 0 13 -9 17 -37 17 l-38 0 0 -50z"/>
<path d="M977 214 c12 -5 0 -56 -20 -81 -7 -10 -4 -13 11 -13 15 0 20 5 16 15
-5 11 1 15 21 15 20 0 26 -4 21 -15 -3 -9 0 -15 9 -15 19 0 19 -1 -5 54 -15
36 -24 46 -42 45 -13 0 -18 -3 -11 -5z m39 -52 c-10 -10 -29 15 -21 28 6 9 10
8 17 -4 6 -10 7 -20 4 -24z"/>
<path d="M1071 198 c-17 -46 12 -84 54 -74 14 4 25 11 25 17 0 8 -5 8 -15 -1
-24 -20 -55 -3 -55 31 0 34 23 48 51 30 15 -9 19 -8 19 4 0 11 -11 15 -35 15
-28 0 -37 -5 -44 -22z"/>
<path d="M1175 170 l0 -50 37 0 c35 0 57 14 43 28 -3 3 -10 0 -14 -7 -5 -7
-17 -11 -27 -9 -24 4 -25 34 -1 30 10 -2 17 3 17 13 0 12 -6 15 -20 10 -14 -5
-20 -2 -20 9 0 19 46 22 53 4 3 -8 6 -6 6 5 1 13 -7 17 -36 17 l-38 0 0 -50z"/>
<path d="M1290 200 c0 -14 9 -24 30 -31 17 -6 30 -15 30 -20 0 -16 -30 -22
-45 -9 -17 14 -31 8 -20 -9 8 -15 48 -14 63 1 20 20 14 35 -18 47 -16 5 -30
15 -30 20 0 15 33 14 49 -1 11 -11 13 -10 9 2 -3 8 -19 16 -36 18 -27 3 -32 0
-32 -18z"/>
<path d="M1394 205 c-8 -20 4 -35 26 -35 24 0 36 -18 21 -33 -9 -9 -17 -8 -32
2 -18 10 -20 10 -17 -1 7 -22 55 -22 67 0 12 22 0 37 -33 43 -11 2 -20 8 -20
14 -1 15 36 18 45 3 7 -10 9 -9 9 5 0 22 -58 24 -66 2z"/>
<path d="M1605 170 c0 -31 4 -50 11 -50 7 0 10 8 7 20 -4 14 0 20 11 20 9 0
21 -9 28 -20 7 -11 16 -20 21 -20 4 0 0 11 -9 26 -12 18 -14 28 -6 36 18 18 2
38 -32 38 -31 0 -31 -1 -31 -50z m55 25 c0 -8 -9 -15 -20 -15 -11 0 -20 7 -20
15 0 8 9 15 20 15 11 0 20 -7 20 -15z"/>
<path d="M1723 213 c12 -3 17 -15 17 -43 0 -28 -5 -40 -17 -43 -10 -3 0 -5 22
-5 22 0 32 2 23 5 -13 3 -18 15 -18 43 0 28 5 40 18 43 9 3 -1 5 -23 5 -22 0
-32 -2 -22 -5z"/>
<path d="M1822 208 c-7 -7 -12 -24 -12 -38 0 -52 48 -68 76 -25 32 49 -24 103
-64 63z m56 -15 c12 -22 -2 -63 -21 -63 -29 0 -51 53 -30 73 12 13 42 7 51
-10z"/>
<path d="M1925 210 c-9 -14 3 -30 31 -40 13 -5 24 -14 24 -20 0 -18 -29 -23
-47 -9 -14 12 -16 12 -11 -1 7 -24 55 -25 67 -2 12 22 0 37 -33 43 -11 2 -20
8 -20 14 -1 15 36 18 45 3 7 -10 9 -9 9 5 0 12 -8 17 -29 17 -17 0 -33 -4 -36
-10z"/>
<path d="M1477 93 c-11 -10 -8 -63 3 -63 8 0 13 21 9 46 0 4 5 11 13 15 10 7
10 9 -3 9 -9 0 -19 -3 -22 -7z"/>
<path d="M1708 88 c-3 -7 -1 -24 3 -38 7 -24 7 -24 8 -2 1 27 17 29 24 2 3
-11 13 -20 24 -20 15 0 16 2 3 10 -13 8 -12 10 3 10 9 0 17 -4 17 -10 0 -20
19 -10 23 13 4 22 4 22 6 0 1 -20 6 -21 77 -21 l76 0 -27 18 c-19 12 -23 19
-13 23 7 2 -12 5 -42 6 -30 1 -64 1 -74 2 -11 0 -23 -6 -27 -13 -7 -11 -9 -11
-9 0 0 7 -8 12 -17 11 -10 -1 -25 -1 -33 0 -13 1 -13 2 0 11 13 8 13 10 -1 10
-9 0 -19 -6 -21 -12z m142 -33 c0 -8 -4 -15 -10 -15 -5 0 -10 7 -10 15 0 8 5
15 10 15 6 0 10 -7 10 -15z m35 6 c3 -5 1 -12 -5 -16 -5 -3 -10 1 -10 9 0 18
6 21 15 7z m42 -17 c-3 -3 -12 -4 -19 -1 -8 3 -5 6 6 6 11 1 17 -2 13 -5z"/>
<path d="M1535 81 c-21 -4 -30 -12 -30 -26 0 -17 7 -20 40 -21 37 -1 40 1 39
25 -1 28 -7 31 -49 22z m5 -26 c0 -8 -4 -15 -10 -15 -5 0 -10 7 -10 15 0 8 5
15 10 15 6 0 10 -7 10 -15z"/>
<path d="M1595 70 c-14 -23 8 -38 58 -38 36 1 46 3 32 9 -18 7 -18 8 -2 8 10
1 17 7 15 14 -5 14 -95 21 -103 7z m35 -15 c0 -8 -4 -15 -10 -15 -5 0 -10 7
-10 15 0 8 5 15 10 15 6 0 10 -7 10 -15z"/>
<path d="M1976 65 c-9 -24 10 -33 66 -33 50 1 58 4 61 22 4 20 4 20 6 -1 0
-13 5 -23 10 -23 5 0 11 10 14 23 4 22 4 22 15 -3 l11 -25 0 27 1 27 -89 -1
c-60 0 -91 -5 -95 -13z m44 -10 c0 -8 -7 -15 -15 -15 -8 0 -15 7 -15 15 0 8 7
15 15 15 8 0 15 -7 15 -15z m40 0 c0 -8 -4 -15 -10 -15 -5 0 -10 7 -10 15 0 8
5 15 10 15 6 0 10 -7 10 -15z"/>
</g>
</svg>
